<svg width="16" height="16" viewBox="0 0 16 16" fill="none" xmlns="http://www.w3.org/2000/svg">
<path d="M0.264205 15V0.454545H3.33949V12.4645H9.57528V15H0.264205Z" fill="white"/>
<path d="M13.3235 15.1847C12.8548 15.1847 12.4523 15.0189 12.1161 14.6875C11.7847 14.3513 11.619 13.9489 11.619 13.4801C11.619 13.0161 11.7847 12.6184 12.1161 12.2869C12.4523 11.9555 12.8548 11.7898 13.3235 11.7898C13.7781 11.7898 14.1758 11.9555 14.5167 12.2869C14.8576 12.6184 15.0281 13.0161 15.0281 13.4801C15.0281 13.7926 14.9476 14.0791 14.7866 14.3395C14.6303 14.5952 14.4244 14.8011 14.1687 14.9574C13.913 15.1089 13.6313 15.1847 13.3235 15.1847Z" fill="#0AFF9D"/>
</svg>
