<svg width="18" height="18" viewBox="0 0 18 18" fill="none" xmlns="http://www.w3.org/2000/svg">
<path d="M0.453835 17V0.272727H3.99041V14.0842H11.1616V17H0.453835Z" fill="white"/>
<path d="M15.472 17.2124C14.933 17.2124 14.4701 17.0218 14.0835 16.6406C13.7024 16.254 13.5118 15.7912 13.5118 15.2521C13.5118 14.7185 13.7024 14.2611 14.0835 13.88C14.4701 13.4988 14.933 13.3082 15.472 13.3082C15.9948 13.3082 16.4521 13.4988 16.8442 13.88C17.2362 14.2611 17.4323 14.7185 17.4323 15.2521C17.4323 15.6115 17.3397 15.9409 17.1546 16.2404C16.9749 16.5344 16.738 16.7713 16.444 16.951C16.1499 17.1252 15.826 17.2124 15.472 17.2124Z" fill="#0AFF9D"/>
</svg>
